{"accessors":[{"bufferView":0,"componentType":5123,"count":16431,"max":[3203],"min":[0],"type":"SCALAR"},{"bufferView":1,"componentType":5126,"count":3204,"max":[1.0036484003067017,0.09318605065345764,0.014176905155181885],"min":[-0.48744264245033264,-0.09045686572790146,-0.014041060581803322],"type":"VEC3"},{"bufferView":2,"componentType":5126,"count":3204,"max":[0.9590136408805847,0.9933164715766907,1.0],"min":[-0.9982299208641052,-0.9987487196922302,-1.0],"type":"VEC3"},{"bufferView":3,"componentType":5126,"count":3204,"max":[0.9834389686584473,1.0,0.9933832287788391,1.0],"min":[-0.924920380115509,-1.0,-0.9998388290405273,1.0],"type":"VEC4"},{"bufferView":4,"componentType":5126,"count":3204,"max":[1.3190746307373047,1.2895468473434448],"min":[-0.15896278619766235,-0.3190746307373047],"type":"VEC2"},{"bufferView":5,"componentType":5123,"count":49038,"max":[9294],"min":[0],"type":"SCALAR"},{"bufferView":6,"componentType":5126,"count":9295,"max":[1.2076013088226318,0.17988285422325134,0.0486573800444603],"min":[-0.45783352851867676,-0.17988461256027222,-0.04842568561434746],"type":"VEC3"},{"bufferView":7,"componentType":5126,"count":9295,"max":[0.8510086536407471,0.9856868386268616,0.999847412109375],"min":[-0.5243995189666748,-0.982665479183197,-0.999969482421875],"type":"VEC3"},{"bufferView":8,"componentType":5126,"count":9295,"max":[0.9833404421806335,0.999989926815033,0.9999407529830933,1.0],"min":[-0.6470884680747986,-1.0,-0.9998258948326111,1.0],"type":"VEC4"},{"bufferView":9,"componentType":5126,"count":9295,"max":[1.318249225616455,1.31907457113266],"min":[-0.3190745711326599,-0.2914156913757324],"type":"VEC2"},{"bufferView":10,"componentType":5123,"count":7680,"max":[1845],"min":[0],"type":"SCALAR"},{"bufferView":11,"componentType":5126,"count":1846,"max":[-0.0798574686050415,0.07315050065517426,0.036202069371938705],"min":[-0.5707504749298096,-0.06936852633953094,-0.036202069371938705],"type":"VEC3"},{"bufferView":12,"componentType":5126,"count":1846,"max":[0.9956663846969604,0.9962767362594604,0.999969482421875],"min":[-0.9921872615814209,-0.9962767362594604,-0.999969482421875],"type":"VEC3"},{"bufferView":13,"componentType":5126,"count":1846,"max":[0.9138926863670349,0.9999997019767761,0.999727189540863,1.0],"min":[-0.8572849035263062,-0.9999998807907104,-0.9997697472572327,1.0],"type":"VEC4"},{"bufferView":14,"componentType":5126,"count":1846,"max":[2.1607706546783447,2.469571828842163],"min":[-0.734878420829773,-1.4831020832061768],"type":"VEC2"},{"bufferView":15,"componentType":5123,"count":5184,"max":[1013],"min":[0],"type":"SCALAR"},{"bufferView":16,"componentType":5126,"count":1014,"max":[-1.0770175457000732,0.09039817750453949,0.04690561816096306],"min":[-1.2163186073303223,-0.09040840715169907,-0.046905599534511566],"type":"VEC3"},{"bufferView":17,"componentType":5126,"count":1014,"max":[1.0,0.981658399105072,0.9970396757125854],"min":[-1.0,-0.981627881526947,-0.9970396757125854],"type":"VEC3"},{"bufferView":18,"componentType":5126,"count":1014,"max":[0.997053325176239,0.8308927416801453,1.0,1.0],"min":[-0.9970530867576599,-0.8312762975692749,-0.9999979138374329,1.0],"type":"VEC4"},{"bufferView":19,"componentType":5126,"count":1014,"max":[1.0,1.0],"min":[0.0,0.0],"type":"VEC2"},{"bufferView":20,"componentType":5123,"count":52662,"max":[10639],"min":[0],"type":"SCALAR"},{"bufferView":21,"componentType":5126,"count":10640,"max":[-0.2484932839870453,0.25528281927108765,0.06817610561847687],"min":[-0.6773712635040283,-0.25528281927108765,-0.06817610561847687],"type":"VEC3"},{"bufferView":22,"componentType":5126,"count":10640,"max":[0.999969482421875,0.999969482421875,1.0],"min":[-1.0,-0.999969482421875,-1.0],"type":"VEC3"},{"bufferView":23,"componentType":5126,"count":10640,"max":[0.9319179654121399,0.9999999403953552,1.0,1.0],"min":[-1.0,-0.9999999403953552,-1.0,1.0],"type":"VEC4"},{"bufferView":24,"componentType":5126,"count":10640,"max":[1.0,1.0],"min":[0.0,0.0],"type":"VEC2"},{"bufferView":25,"componentType":5123,"count":1344,"max":[305],"min":[0],"type":"SCALAR"},{"bufferView":26,"componentType":5126,"count":306,"max":[-0.6374471187591553,0.03833696246147156,0.02297401614487171],"min":[-1.0887572765350342,-0.03833696246147156,-0.02297401614487171],"type":"VEC3"},{"bufferView":27,"componentType":5126,"count":306,"max":[1.0,1.0,1.0],"min":[-1.0,-1.0,-1.0],"type":"VEC3"},{"bufferView":28,"componentType":5126,"count":306,"max":[0.7680234313011169,1.0,1.0,1.0],"min":[-0.7719855308532715,-0.8005688190460205,-0.9960856437683105,1.0],"type":"VEC4"},{"bufferView":29,"componentType":5126,"count":306,"max":[0.9527701139450073,1.0],"min":[0.6392448544502258,0.20307546854019165],"type":"VEC2"}],"asset":{"generator":"Khronos Blender glTF 2.0 exporter","version":"2.0"},"bufferViews":[{"buffer":0,"byteLength":32862,"byteOffset":0,"target":34963},{"buffer":0,"byteLength":38448,"byteOffset":32864,"target":34962},{"buffer":0,"byteLength":38448,"byteOffset":71312,"target":34962},{"buffer":0,"byteLength":51264,"byteOffset":109760,"target":34962},{"buffer":0,"byteLength":25632,"byteOffset":161024,"target":34962},{"buffer":0,"byteLength":98076,"byteOffset":186656,"target":34963},{"buffer":0,"byteLength":111540,"byteOffset":284732,"target":34962},{"buffer":0,"byteLength":111540,"byteOffset":396272,"target":34962},{"buffer":0,"byteLength":148720,"byteOffset":507812,"target":34962},{"buffer":0,"byteLength":74360,"byteOffset":656532,"target":34962},{"buffer":0,"byteLength":15360,"byteOffset":730892,"target":34963},{"buffer":0,"byteLength":22152,"byteOffset":746252,"target":34962},{"buffer":0,"byteLength":22152,"byteOffset":768404,"target":34962},{"buffer":0,"byteLength":29536,"byteOffset":790556,"target":34962},{"buffer":0,"byteLength":14768,"byteOffset":820092,"target":34962},{"buffer":0,"byteLength":10368,"byteOffset":834860,"target":34963},{"buffer":0,"byteLength":12168,"byteOffset":845228,"target":34962},{"buffer":0,"byteLength":12168,"byteOffset":857396,"target":34962},{"buffer":0,"byteLength":16224,"byteOffset":869564,"target":34962},{"buffer":0,"byteLength":8112,"byteOffset":885788,"target":34962},{"buffer":0,"byteLength":105324,"byteOffset":893900,"target":34963},{"buffer":0,"byteLength":127680,"byteOffset":999224,"target":34962},{"buffer":0,"byteLength":127680,"byteOffset":1126904,"target":34962},{"buffer":0,"byteLength":170240,"byteOffset":1254584,"target":34962},{"buffer":0,"byteLength":85120,"byteOffset":1424824,"target":34962},{"buffer":0,"byteLength":2688,"byteOffset":1509944,"target":34963},{"buffer":0,"byteLength":3672,"byteOffset":1512632,"target":34962},{"buffer":0,"byteLength":3672,"byteOffset":1516304,"target":34962},{"buffer":0,"byteLength":4896,"byteOffset":1519976,"target":34962},{"buffer":0,"byteLength":2448,"byteOffset":1524872,"target":34962}],"buffers":[{"byteLength":1527320,"uri":"data:application/octet-stream;base64,"}],"materials":[{"name":"Gem","pbrMetallicRoughness":{"baseColorFactor":[0.800000011920929,0.800000011920929,0.800000011920929,1.0],"metallicFactor":0.0}},{"name":"Gold","pbrMetallicRoughness":{"baseColorFactor":[0.800000011920929,0.800000011920929,0.800000011920929,1.0],"metallicFactor":0.0}},{"name":"Handle","pbrMetallicRoughness":{"baseColorFactor":[0.048575586804383786,0.03637670630777934,0.026181435975155765,1.0],"metallicFactor":0.0}},{"name":"Hilt","pbrMetallicRoughness":{"baseColorFactor":[0.800000011920929,0.800000011920929,0.800000011920929,1.0],"metallicFactor":0.0}},{"name":"Inner Sword","pbrMetallicRoughness":{"baseColorFactor":[0.800000011920929,0.800000011920929,0.800000011920929,1.0],"metallicFactor":0.0}},{"name":"Silver","pbrMetallicRoughness":{"baseColorFactor":[0.800000011920929,0.800000011920929,0.800000011920929,1.0],"metallicFactor":0.0}}],"meshes":[{"name":"Cube.022","primitives":[{"attributes":{"NORMAL":2,"POSITION":1,"TANGENT":3,"TEXCOORD_0":4},"indices":0,"material":4},{"attributes":{"NORMAL":7,"POSITION":6,"TANGENT":8,"TEXCOORD_0":9},"indices":5,"material":5},{"attributes":{"NORMAL":12,"POSITION":11,"TANGENT":13,"TEXCOORD_0":14},"indices":10,"material":0},{"attributes":{"NORMAL":17,"POSITION":16,"TANGENT":18,"TEXCOORD_0":19},"indices":15,"material":3},{"attributes":{"NORMAL":22,"POSITION":21,"TANGENT":23,"TEXCOORD_0":24},"indices":20,"material":1},{"attributes":{"NORMAL":27,"POSITION":26,"TANGENT":28,"TEXCOORD_0":29},"indices":25,"material":2}]}],"nodes":[{"mesh":0,"name":"Cube.020","rotation":[-8.146033536604591e-08,0.0,-0.0,1.0]}],"scene":0,"scenes":[{"name":"Scene","nodes":[0]}]}
